HIERARCHY
ROOT Hips
{
	OFFSET 0.000000 0.000000 0.000000
	CHANNELS 6 Xposition Yposition Zposition Yrotation Xrotation Zrotation
	JOINT Chest
	{
		OFFSET 0.000000 -0.009281 11.569106
		CHANNELS 3 Yrotation Xrotation Zrotation
		JOINT Chest2
		{
			OFFSET -0.000000 0.016865 9.269641
			CHANNELS 3 Yrotation Xrotation Zrotation
			JOINT Chest3
			{
				OFFSET -0.000000 0.000001 8.374491
				CHANNELS 3 Yrotation Xrotation Zrotation
				JOINT Chest4
				{
					OFFSET -0.000000 0.000001 8.374493
					CHANNELS 3 Yrotation Xrotation Zrotation
					JOINT Neck
					{
						OFFSET -0.000000 0.000002 12.152554
						CHANNELS 3 Yrotation Xrotation Zrotation
						JOINT Head
						{
							OFFSET -0.000000 0.040101 7.802319
							CHANNELS 3 Yrotation Xrotation Zrotation
							End Site
							{
								OFFSET -0.000000 0.020947 14.853096
							}
						}
					}
					JOINT RightCollar
					{
						OFFSET 2.894404 0.000001 6.791374
						CHANNELS 3 Yrotation Xrotation Zrotation
						JOINT RightShoulder
						{
							OFFSET 13.574684 0.000001 0.000000
							CHANNELS 3 Yrotation Xrotation Zrotation
							JOINT RightElbow
							{
								OFFSET 23.923903 0.000002 0.000000
								CHANNELS 3 Yrotation Xrotation Zrotation
								JOINT RightWrist
								{
									OFFSET 19.846718 0.012767 0.000000
									CHANNELS 3 Yrotation Xrotation Zrotation
									End Site
									{
										OFFSET 14.973145 0.000001 0.000000
									}
								}
							}
						}
					}
					JOINT LeftCollar
					{
						OFFSET -2.894404 0.000001 6.791374
						CHANNELS 3 Yrotation Xrotation Zrotation
						JOINT LeftShoulder
						{
							OFFSET -13.574684 -0.000001 0.000000
							CHANNELS 3 Yrotation Xrotation Zrotation
							JOINT LeftElbow
							{
								OFFSET -23.923903 -0.000002 0.000000
								CHANNELS 3 Yrotation Xrotation Zrotation
								JOINT LeftWrist
								{
									OFFSET -19.846718 0.012763 0.000000
									CHANNELS 3 Yrotation Xrotation Zrotation
									End Site
									{
										OFFSET -14.973145 -0.000001 0.000000
									}
								}
							}
						}
					}
				}
			}
		}
	}
	JOINT RightHip
	{
		OFFSET 9.469263 0.004643 0.045487
		CHANNELS 3 Yrotation Xrotation Zrotation
		JOINT RightKnee
		{
			OFFSET 0.000000 0.002661 -40.478676
			CHANNELS 3 Yrotation Xrotation Zrotation
			JOINT RightAnkle
			{
				OFFSET 0.000000 0.049106 -35.224068
				CHANNELS 3 Yrotation Xrotation Zrotation
				JOINT RightToe
				{
					OFFSET -0.000001 12.539529 -6.151390
					CHANNELS 3 Yrotation Xrotation Zrotation
					End Site
					{
						OFFSET -0.000001 5.044994 -1.291870
					}
				}
			}
		}
	}
	JOINT LeftHip
	{
		OFFSET -9.469263 0.004641 0.045487
		CHANNELS 3 Yrotation Xrotation Zrotation
		JOINT LeftKnee
		{
			OFFSET 0.000000 0.002661 -40.478676
			CHANNELS 3 Yrotation Xrotation Zrotation
			JOINT LeftAnkle
			{
				OFFSET 0.000000 0.049106 -35.224068
				CHANNELS 3 Yrotation Xrotation Zrotation
				JOINT LeftToe
				{
					OFFSET -0.000001 12.539529 -6.151390
					CHANNELS 3 Yrotation Xrotation Zrotation
					End Site
					{
						OFFSET -0.000001 5.044994 -1.291870
					}
				}
			}
		}
	}
}
MOTION
Frames: 5
Frame Time: 0.016667
-16.504946 -18.160765 83.928864 -12.643560 -7.100328 -70.951636 3.223456 -0.818735 -0.519170 1.622494 -0.517563 -0.170702 1.622495 -0.517564 -0.170700 1.216719 -0.388631 -0.126652 8.160509 -19.169928 -10.779283 11.500953 0.866834 -17.119990 11.448088 2.129691 -0.759664 60.769593 1.284231 -22.552311 -6.579664 -27.689770 -12.682262 1.173944 1.549528 6.013459 -9.638162 -1.318762 -1.661047 -84.021456 5.782634 -11.298162 -11.848109 13.381271 -26.281028 3.178626 8.339962 -25.067890 8.617896 7.688115 7.694423 1.260297 -9.968007 -1.031354 11.771710 -1.717973 5.019956 -3.302459 -0.843795 -0.053241 0.243068 -16.185375 -9.155565 0.266324 -27.021055 9.904036 16.301071 -5.938882 -8.650032 -4.281539 38.821381 -0.046804 
-14.261894 -19.372166 84.396149 -14.201507 -8.112851 -69.958308 4.045172 -1.560527 -0.289427 1.774450 -0.577745 -0.180568 1.774451 -0.577746 -0.180570 1.330657 -0.433837 -0.133749 8.554547 -19.075781 -11.001288 12.142416 1.068271 -17.397306 11.137224 1.988919 -1.285671 60.337126 -0.222694 -21.947992 -7.128397 -29.826862 -12.915270 0.457277 0.402447 5.327829 -9.005797 -2.311861 -1.789408 -84.885215 5.733648 -11.723414 -12.513105 13.925985 -26.092368 3.900028 10.854333 -26.241585 10.378997 4.886879 7.670565 1.876254 -8.938899 -0.967550 10.177189 -2.628850 3.290498 -2.312562 1.098394 0.165809 2.624944 -14.080027 -9.465827 0.341980 -32.591723 11.951147 16.317583 -12.800183 -11.613048 -3.441106 48.986544 0.925997 
-12.261205 -19.234421 83.741638 -15.037940 -6.914761 -67.411249 2.733285 -2.524558 -1.491848 1.907908 -0.578547 -0.247644 1.907909 -0.578547 -0.247644 1.430686 -0.434689 -0.183929 8.900304 -18.878431 -11.216756 12.690024 1.457149 -17.675259 10.725601 1.305048 -1.907386 60.054657 -1.553249 -20.551826 -7.610590 -31.363119 -12.973392 -0.550066 -0.400117 4.754120 -8.578373 -3.271851 -2.003504 -85.422294 5.480143 -11.970880 -13.003734 14.881560 -26.070192 4.962082 12.558516 -26.319096 10.191509 2.217848 3.881265 2.481713 -7.999214 -0.119935 7.489359 -4.058229 3.338606 -1.231619 3.253344 -0.071006 2.491574 -11.536041 -10.813282 0.477752 -38.638667 13.034326 16.964233 -18.281599 -14.303027 -1.601413 57.621231 3.361545 
-10.422446 -19.598375 83.297592 -14.958413 -6.505221 -65.574775 1.892396 -2.745446 -1.890812 2.060990 -0.508719 -0.334172 2.060991 -0.508716 -0.334173 1.545456 -0.382672 -0.248916 9.223014 -18.556996 -11.449317 13.180710 2.073790 -17.988145 10.447808 0.255815 -1.994799 59.808989 -2.560164 -18.729596 -8.027305 -32.173521 -13.048985 -1.128155 -0.927674 4.240350 -8.419960 -3.616292 -2.074999 -85.603635 4.889844 -11.576381 -13.598498 16.212258 -26.270268 6.277965 12.934444 -25.586927 10.083050 0.367353 0.248859 2.763016 -6.835512 0.677188 5.460787 -3.263184 4.113517 -0.171938 3.001576 -0.060351 2.336736 -7.716344 -9.973946 1.955562 -43.614258 11.244056 18.713334 -23.661647 -12.990704 -7.555326 64.673299 -1.067953 
-8.631242 -19.436083 82.913078 -15.315448 -7.103558 -63.955549 2.155668 -3.117043 -1.972816 2.235960 -0.429495 -0.416970 2.235959 -0.429493 -0.416969 1.676669 -0.323652 -0.311160 9.546746 -18.167152 -11.684494 13.667343 2.816875 -18.302755 10.553694 0.078534 -1.663874 59.356120 -3.905636 -17.451441 -8.497355 -32.602856 -13.186409 -1.329331 -1.285679 3.887506 -8.786732 -2.917188 -1.915392 -85.260855 4.120794 -10.343113 -14.010559 17.592718 -26.273431 7.529165 12.405853 -24.666132 11.198147 -0.949589 -1.544028 3.105900 -6.546195 -0.174283 4.135053 -2.301605 5.898843 0.122190 2.963372 -0.821143 3.851707 -4.253660 -8.474508 4.144317 -46.894484 8.750363 20.686205 -25.730209 -12.663426 -15.789434 67.203078 -7.289431 
